<?xml version="1.0" encoding="iso-8859-1"?>
<svg version="1.1" id="Layer_1" xmlns="http://www.w3.org/2000/svg" xmlns:xlink="http://www.w3.org/1999/xlink" x="0px" y="0px"
	 viewBox="0 0 380.693 215.433" style="enable-background:new 0 0 380.693 215.433;" xml:space="preserve">
<g>
	<path style="fill:#1C2140;" d="M0.006,1.719C18.484,1.724,36.964,1.602,55.44,1.78c11.632,0.112,22.95,2.062,33.454,7.441
		c12.849,6.58,20.611,16.992,23.306,31.151c1.962,10.307,1.409,20.487-2.047,30.426c-4.092,11.767-12.069,20.066-23.185,25.452
		c-6.672,3.232-13.747,5.088-21.083,6.062c-9.159,1.216-18.363,0.737-27.552,0.836c-2.071,0.022-4.142,0.003-6.343,0.003
		c0,17.709,0,35.338,0,53.011c-0.283,0.054-0.449,0.114-0.616,0.114c-10.456-0.004-20.912-0.014-31.368-0.022
		C0.006,104.742,0.006,53.231,0.006,1.719z M32.05,25.992c0,17.628,0,35.113,0,52.677c0.479,0,0.868,0,1.256,0
		c6.338,0,12.679,0.09,19.014-0.039c3.095-0.063,6.222-0.309,9.264-0.865c8.738-1.595,14.912-6.471,17.877-14.963
		c2.145-6.143,2.4-12.468,0.887-18.794c-1.622-6.782-5.534-11.803-11.894-14.847c-4.603-2.203-9.5-3.067-14.535-3.136
		c-6.874-0.094-13.751-0.03-20.626-0.033C32.905,25.991,32.516,25.992,32.05,25.992z"/>
	<path style="fill:#1C2140;" d="M180.332,0c1.226,0.14,2.451,0.298,3.68,0.416c12.253,1.184,23.546,4.983,33.539,12.315
		c0.807,0.592,1.587,1.224,2.356,1.865c0.631,0.525,1.227,1.092,1.902,1.696c-1.385,2.653-2.767,5.302-4.151,7.95
		c-1.141,2.182-2.243,4.387-3.441,6.538c-1.25,2.243-2.658,4.393-5.394,5.032c-2.512,0.587-4.754-0.184-6.95-1.407
		c-3.397-1.891-6.82-3.745-10.314-5.449c-5.438-2.653-11.236-3.692-17.269-3.375c-3.763,0.198-7.484,0.708-10.891,2.442
		c-6.496,3.308-9.438,8.741-9.355,15.942c0.052,4.53,2.278,7.848,5.739,10.508c4.344,3.339,9.375,5.256,14.484,7.009
		c7.11,2.44,14.276,4.728,21.321,7.345c5.603,2.081,10.902,4.824,15.537,8.706c6.965,5.835,11.371,13.139,12.653,22.183
		c1.715,12.097-0.182,23.579-6.395,34.176c-6.595,11.249-16.588,18.099-28.94,21.703c-7.879,2.299-15.949,2.841-24.099,2.176
		c-13.757-1.122-26.441-5.446-37.903-13.15c-2.982-2.005-5.686-4.425-8.565-6.692c1.691-2.733,3.225-5.213,4.759-7.692
		c1.486-2.401,2.974-4.799,4.457-7.202c2.588-4.194,7.234-5.636,11.608-3.322c2.96,1.566,5.707,3.53,8.57,5.283
		c4.618,2.826,9.411,5.33,14.759,6.398c6.747,1.347,13.513,1.431,20.095-0.918c6.79-2.424,10.766-7.232,11.795-14.433
		c0.434-3.04,0.507-6.055-0.326-9.031c-1.074-3.833-3.729-6.447-6.889-8.612c-4.384-3.005-9.335-4.729-14.385-6.197
		c-8.629-2.508-17.28-4.941-25.446-8.795c-11.94-5.635-19.434-14.832-21.873-27.836c-1.887-10.058-1.16-19.927,3.437-29.274
		c4.705-9.565,12.155-16.299,21.675-20.868c5.784-2.776,11.877-4.436,18.266-5.019c1.122-0.102,2.238-0.272,3.356-0.41
		C174.6,0,177.466,0,180.332,0z"/>
	<path style="fill:#1C2140;" d="M316.948,1.754c20.078,51.473,40.146,102.918,60.248,154.451c-0.251,0.034-0.411,0.074-0.571,0.074
		c-8.273,0.003-16.547,0.045-24.82-0.014c-4.793-0.034-8.486-2.71-10.103-7.235c-3.312-9.263-6.593-18.536-9.831-27.825
		c-0.389-1.117-0.877-1.496-2.101-1.493c-19.591,0.048-39.182,0.043-58.772,0.007c-1.016-0.002-1.4,0.33-1.721,1.247
		c-3.248,9.285-6.543,18.554-9.83,27.826c-1.652,4.658-5.617,7.484-10.525,7.489c-7.951,0.009-15.902,0.002-23.853,0.002
		c-0.349,0-0.697,0-1.228,0c0.762-1.976,1.456-3.797,2.166-5.613c10.86-27.795,21.72-55.591,32.583-83.384
		c8.424-21.552,16.855-43.101,25.272-64.655c0.221-0.567,0.407-0.931,1.159-0.928c10.458,0.031,20.916,0.021,31.374,0.022
		C316.536,1.726,316.678,1.74,316.948,1.754z M300.427,31.4c-6.598,22.303-15.45,43.945-22.79,66.123c15.315,0,30.543,0,45.803,0
		C315.962,75.317,307.5,53.534,300.427,31.4z"/>
	<path style="fill:#D40E4A;" d="M3.934,203.089v7.445H0v-21.149h6.889c1.414,0,2.637,0.166,3.671,0.498s1.887,0.795,2.56,1.389
		c0.673,0.595,1.17,1.307,1.492,2.135c0.322,0.829,0.483,1.736,0.483,2.72c0,1.024-0.171,1.963-0.512,2.816
		c-0.341,0.854-0.853,1.587-1.536,2.201c-0.683,0.614-1.536,1.092-2.56,1.433c-1.024,0.341-2.223,0.512-3.598,0.512H3.934z
		 M3.934,200.017h2.955c0.722,0,1.35-0.09,1.887-0.271c0.536-0.18,0.98-0.439,1.331-0.775c0.351-0.336,0.614-0.746,0.79-1.228
		c0.176-0.483,0.263-1.021,0.263-1.617c0-0.565-0.088-1.077-0.263-1.535c-0.176-0.458-0.439-0.848-0.79-1.17
		s-0.795-0.568-1.331-0.739c-0.536-0.17-1.165-0.256-1.887-0.256H3.934V200.017z"/>
	<path style="fill:#D40E4A;" d="M17.039,210.533v-21.734h3.613v8.352c0.585-0.556,1.228-1.004,1.931-1.346
		c0.702-0.341,1.526-0.512,2.472-0.512c0.819,0,1.545,0.139,2.179,0.417c0.634,0.278,1.163,0.668,1.587,1.17
		c0.424,0.502,0.746,1.102,0.965,1.799c0.219,0.697,0.329,1.465,0.329,2.304v9.551h-3.613v-9.551c0-0.916-0.212-1.626-0.636-2.128
		c-0.424-0.502-1.061-0.753-1.909-0.753c-0.624,0-1.209,0.141-1.755,0.424c-0.546,0.283-1.063,0.668-1.55,1.156v10.852H17.039z"/>
	<path style="fill:#D40E4A;" d="M39.529,195.293c1.121,0,2.138,0.18,3.05,0.541c0.912,0.361,1.689,0.873,2.333,1.536
		c0.644,0.663,1.141,1.472,1.492,2.428c0.351,0.956,0.527,2.023,0.527,3.203c0,1.19-0.176,2.262-0.527,3.218
		s-0.848,1.769-1.492,2.442c-0.643,0.673-1.421,1.19-2.333,1.55c-0.912,0.361-1.929,0.541-3.05,0.541
		c-1.121,0-2.14-0.18-3.057-0.541c-0.917-0.361-1.699-0.878-2.348-1.55c-0.649-0.673-1.151-1.487-1.506-2.442
		c-0.356-0.956-0.534-2.028-0.534-3.218c0-1.18,0.178-2.248,0.534-3.203c0.356-0.956,0.858-1.765,1.506-2.428
		c0.649-0.663,1.431-1.175,2.348-1.536C37.389,195.473,38.408,195.293,39.529,195.293z M39.529,207.974
		c1.248,0,2.172-0.419,2.772-1.258c0.6-0.839,0.899-2.067,0.899-3.686c0-1.618-0.3-2.852-0.899-3.7
		c-0.6-0.848-1.524-1.272-2.772-1.272c-1.268,0-2.204,0.427-2.808,1.28c-0.605,0.853-0.907,2.084-0.907,3.693
		c0,1.609,0.302,2.835,0.907,3.678C37.326,207.552,38.262,207.974,39.529,207.974z"/>
	<path style="fill:#D40E4A;" d="M49.15,210.533v-15.006h2.209c0.468,0,0.775,0.219,0.921,0.658l0.249,1.185
		c0.302-0.312,0.622-0.595,0.958-0.848c0.336-0.253,0.692-0.473,1.068-0.658c0.375-0.185,0.777-0.326,1.207-0.424
		c0.429-0.097,0.897-0.146,1.404-0.146c0.819,0,1.545,0.139,2.179,0.417c0.634,0.278,1.163,0.668,1.587,1.17
		c0.424,0.502,0.746,1.102,0.965,1.799c0.219,0.697,0.329,1.465,0.329,2.304v9.551h-3.613v-9.551c0-0.916-0.212-1.626-0.636-2.128
		c-0.424-0.502-1.061-0.753-1.909-0.753c-0.624,0-1.209,0.141-1.755,0.424c-0.546,0.283-1.063,0.668-1.55,1.156v10.852H49.15z"/>
	<path style="fill:#D40E4A;" d="M71.588,195.293c0.946,0,1.816,0.151,2.611,0.453c0.795,0.302,1.479,0.744,2.055,1.324
		c0.575,0.58,1.024,1.292,1.346,2.136c0.322,0.843,0.483,1.806,0.483,2.888c0,0.273-0.012,0.5-0.037,0.68
		c-0.024,0.18-0.068,0.321-0.132,0.424c-0.064,0.102-0.149,0.175-0.256,0.219s-0.244,0.066-0.409,0.066h-9.273
		c0.107,1.541,0.522,2.672,1.243,3.393c0.722,0.722,1.677,1.082,2.867,1.082c0.585,0,1.089-0.068,1.514-0.205
		c0.424-0.137,0.795-0.288,1.112-0.454c0.317-0.166,0.595-0.317,0.834-0.453c0.239-0.136,0.47-0.205,0.695-0.205
		c0.146,0,0.273,0.029,0.38,0.088c0.107,0.059,0.2,0.142,0.278,0.249l1.053,1.316c-0.4,0.468-0.848,0.86-1.346,1.177
		c-0.497,0.317-1.017,0.57-1.558,0.761c-0.541,0.19-1.092,0.324-1.653,0.402c-0.561,0.078-1.104,0.117-1.631,0.117
		c-1.044,0-2.014-0.173-2.911-0.519c-0.897-0.346-1.677-0.858-2.34-1.536c-0.663-0.678-1.185-1.516-1.565-2.516
		c-0.38-0.999-0.57-2.157-0.57-3.474c0-1.024,0.166-1.986,0.497-2.888c0.331-0.902,0.807-1.687,1.426-2.355
		c0.619-0.668,1.375-1.197,2.267-1.587C69.46,195.488,70.466,195.293,71.588,195.293z M71.661,197.882
		c-1.053,0-1.877,0.298-2.472,0.892c-0.595,0.595-0.975,1.438-1.141,2.53h6.786c0-0.468-0.063-0.909-0.19-1.324
		c-0.127-0.415-0.322-0.777-0.585-1.09c-0.263-0.312-0.595-0.558-0.995-0.738C72.665,197.972,72.197,197.882,71.661,197.882z"/>
	<path style="fill:#D40E4A;" d="M80.288,200.32h7.326v2.732h-7.326V200.32z"/>
	<path style="fill:#D40E4A;" d="M90.489,215.433v-19.906h2.209c0.234,0,0.434,0.054,0.6,0.161c0.166,0.107,0.273,0.273,0.322,0.497
		l0.293,1.389c0.604-0.692,1.299-1.253,2.084-1.682c0.785-0.429,1.704-0.644,2.757-0.644c0.819,0,1.567,0.171,2.245,0.512
		c0.678,0.341,1.263,0.836,1.755,1.485c0.492,0.649,0.872,1.448,1.141,2.399c0.268,0.951,0.402,2.04,0.402,3.269
		c0,1.122-0.151,2.16-0.454,3.115c-0.302,0.956-0.734,1.784-1.294,2.486c-0.561,0.702-1.239,1.251-2.033,1.645
		c-0.795,0.395-1.685,0.592-2.669,0.592c-0.848,0-1.568-0.129-2.157-0.388c-0.59-0.258-1.119-0.617-1.587-1.075v6.143H90.489z
		 M97.509,198.101c-0.751,0-1.392,0.159-1.923,0.475c-0.532,0.317-1.026,0.763-1.485,1.339v6.728
		c0.409,0.507,0.856,0.861,1.338,1.061c0.483,0.2,1.002,0.3,1.558,0.3c0.546,0,1.041-0.103,1.485-0.307
		c0.444-0.205,0.819-0.517,1.126-0.936s0.543-0.948,0.709-1.587c0.166-0.638,0.249-1.392,0.249-2.26c0-0.877-0.071-1.621-0.212-2.23
		c-0.142-0.609-0.344-1.104-0.607-1.485s-0.583-0.658-0.958-0.834C98.413,198.189,97.987,198.101,97.509,198.101z"/>
	<path style="fill:#D40E4A;" d="M118.004,210.531h-1.624c-0.341,0-0.61-0.051-0.805-0.153c-0.195-0.103-0.341-0.31-0.439-0.622
		l-0.322-1.068c-0.38,0.341-0.753,0.641-1.119,0.899c-0.366,0.258-0.744,0.475-1.134,0.651c-0.39,0.175-0.805,0.307-1.243,0.395
		c-0.439,0.088-0.926,0.132-1.463,0.132c-0.634,0-1.219-0.086-1.755-0.257c-0.536-0.171-0.997-0.428-1.382-0.77
		s-0.685-0.768-0.899-1.277c-0.215-0.509-0.322-1.101-0.322-1.776c0-0.568,0.149-1.128,0.446-1.68
		c0.297-0.553,0.792-1.052,1.485-1.497c0.692-0.445,1.614-0.815,2.764-1.108s2.579-0.44,4.285-0.44v-0.884
		c0-1.012-0.212-1.761-0.636-2.248c-0.424-0.486-1.041-0.729-1.85-0.729c-0.585,0-1.073,0.069-1.463,0.205
		c-0.39,0.137-0.729,0.29-1.017,0.461c-0.288,0.171-0.554,0.324-0.797,0.461c-0.244,0.137-0.512,0.205-0.805,0.205
		c-0.244,0-0.453-0.063-0.629-0.19c-0.175-0.126-0.317-0.283-0.424-0.468l-0.658-1.156c1.726-1.58,3.808-2.369,6.245-2.369
		c0.878,0,1.66,0.144,2.348,0.431c0.687,0.288,1.27,0.687,1.748,1.199c0.478,0.512,0.841,1.124,1.09,1.836
		c0.249,0.712,0.373,1.492,0.373,2.34V210.531z M110.983,208.279c0.371,0,0.712-0.034,1.024-0.101
		c0.312-0.067,0.607-0.168,0.885-0.302c0.278-0.134,0.546-0.3,0.805-0.497c0.258-0.196,0.519-0.43,0.782-0.698v-2.512
		c-1.053,0-1.933,0.066-2.64,0.199c-0.707,0.132-1.275,0.302-1.704,0.508c-0.429,0.207-0.734,0.447-0.914,0.722
		c-0.181,0.275-0.271,0.575-0.271,0.899c0,0.638,0.188,1.095,0.563,1.37C109.889,208.141,110.379,208.279,110.983,208.279z"/>
	<path style="fill:#D40E4A;" d="M125.002,191.151c0,0.312-0.063,0.605-0.19,0.878c-0.127,0.273-0.295,0.512-0.505,0.716
		c-0.21,0.205-0.456,0.368-0.739,0.49c-0.283,0.122-0.585,0.183-0.907,0.183c-0.312,0-0.607-0.061-0.885-0.183
		c-0.278-0.122-0.519-0.285-0.724-0.49c-0.205-0.205-0.368-0.444-0.49-0.716c-0.122-0.273-0.183-0.566-0.183-0.878
		c0-0.322,0.061-0.624,0.183-0.907c0.122-0.283,0.285-0.527,0.49-0.731c0.205-0.205,0.446-0.368,0.724-0.49
		c0.278-0.122,0.573-0.183,0.885-0.183c0.322,0,0.624,0.061,0.907,0.183c0.283,0.122,0.529,0.285,0.739,0.49
		c0.209,0.205,0.378,0.449,0.505,0.731C124.939,190.527,125.002,190.829,125.002,191.151z M124.461,195.525v15.006h-3.612v-15.006
		H124.461z"/>
	<path style="fill:#D40E4A;" d="M138.253,210.533c-0.468,0-0.775-0.219-0.921-0.658l-0.293-1.448
		c-0.312,0.351-0.639,0.668-0.98,0.951c-0.341,0.283-0.709,0.527-1.104,0.731c-0.395,0.205-0.819,0.363-1.273,0.475
		c-0.453,0.112-0.944,0.168-1.47,0.168c-0.819,0-1.57-0.171-2.252-0.512c-0.683-0.341-1.27-0.836-1.762-1.485
		c-0.493-0.648-0.873-1.45-1.141-2.406c-0.268-0.956-0.402-2.047-0.402-3.276c0-1.111,0.151-2.145,0.453-3.101
		s0.736-1.784,1.302-2.486c0.566-0.702,1.243-1.25,2.033-1.645c0.79-0.395,1.677-0.592,2.662-0.592c0.839,0,1.555,0.134,2.15,0.402
		c0.595,0.268,1.126,0.627,1.594,1.075v-7.927h3.613v21.734H138.253z M133.441,207.886c0.751,0,1.389-0.156,1.916-0.468
		c0.527-0.312,1.024-0.756,1.492-1.331v-6.728c-0.409-0.497-0.856-0.848-1.338-1.053c-0.483-0.205-1.002-0.307-1.558-0.307
		c-0.546,0-1.041,0.103-1.485,0.307c-0.444,0.205-0.819,0.514-1.126,0.929c-0.307,0.415-0.544,0.941-0.709,1.58
		c-0.166,0.639-0.249,1.392-0.249,2.26c0,0.878,0.07,1.621,0.212,2.231c0.141,0.61,0.344,1.107,0.607,1.492
		c0.263,0.385,0.585,0.663,0.965,0.833C132.549,207.801,132.973,207.886,133.441,207.886z"/>
	<path style="fill:#D40E4A;" d="M162.134,193.23c-0.107,0.215-0.232,0.366-0.373,0.453c-0.142,0.088-0.31,0.132-0.505,0.132
		c-0.195,0-0.415-0.076-0.658-0.227c-0.244-0.151-0.532-0.319-0.863-0.504c-0.332-0.185-0.719-0.354-1.163-0.505
		c-0.444-0.151-0.968-0.227-1.572-0.227c-0.546,0-1.021,0.066-1.426,0.197c-0.405,0.132-0.746,0.314-1.024,0.548
		c-0.278,0.234-0.485,0.514-0.622,0.841c-0.137,0.327-0.205,0.685-0.205,1.075c0,0.497,0.139,0.912,0.417,1.243
		c0.278,0.332,0.646,0.614,1.104,0.848c0.458,0.234,0.98,0.444,1.565,0.629c0.585,0.185,1.182,0.383,1.792,0.592
		c0.609,0.21,1.207,0.453,1.792,0.731c0.585,0.278,1.107,0.629,1.565,1.053c0.458,0.424,0.826,0.944,1.104,1.558
		s0.417,1.36,0.417,2.238c0,0.956-0.163,1.85-0.49,2.684c-0.327,0.834-0.804,1.561-1.433,2.179
		c-0.629,0.619-1.397,1.107-2.304,1.463c-0.907,0.356-1.945,0.534-3.115,0.534c-0.673,0-1.336-0.066-1.989-0.198
		c-0.653-0.132-1.28-0.319-1.88-0.563c-0.6-0.243-1.16-0.536-1.682-0.878c-0.522-0.341-0.987-0.721-1.397-1.141l1.141-1.887
		c0.107-0.137,0.236-0.251,0.388-0.344c0.151-0.092,0.319-0.139,0.505-0.139c0.244,0,0.507,0.1,0.79,0.3
		c0.283,0.2,0.617,0.422,1.002,0.666c0.385,0.244,0.839,0.465,1.36,0.666c0.522,0.2,1.148,0.3,1.88,0.3
		c1.121,0,1.989-0.266,2.603-0.798c0.614-0.531,0.921-1.294,0.921-2.289c0-0.556-0.139-1.009-0.417-1.36
		c-0.278-0.351-0.646-0.646-1.104-0.885c-0.458-0.239-0.98-0.441-1.565-0.607c-0.585-0.166-1.18-0.346-1.784-0.541
		c-0.605-0.195-1.199-0.429-1.784-0.702c-0.585-0.273-1.107-0.629-1.565-1.068c-0.458-0.439-0.826-0.987-1.104-1.645
		c-0.278-0.659-0.417-1.47-0.417-2.436c0-0.77,0.153-1.521,0.461-2.252c0.307-0.731,0.756-1.38,1.346-1.945
		c0.59-0.565,1.314-1.019,2.172-1.36c0.858-0.341,1.838-0.512,2.94-0.512c1.248,0,2.399,0.195,3.452,0.585
		c1.053,0.39,1.95,0.936,2.691,1.638L162.134,193.23z"/>
	<path style="fill:#D40E4A;" d="M172.213,195.293c0.946,0,1.816,0.151,2.611,0.453c0.794,0.302,1.479,0.744,2.055,1.324
		c0.575,0.58,1.024,1.292,1.346,2.136c0.322,0.843,0.483,1.806,0.483,2.888c0,0.273-0.012,0.5-0.037,0.68
		c-0.024,0.18-0.068,0.321-0.132,0.424c-0.064,0.102-0.149,0.175-0.256,0.219s-0.244,0.066-0.409,0.066h-9.273
		c0.107,1.541,0.522,2.672,1.243,3.393c0.721,0.722,1.677,1.082,2.867,1.082c0.585,0,1.089-0.068,1.514-0.205
		c0.424-0.137,0.795-0.288,1.112-0.454c0.317-0.166,0.595-0.317,0.834-0.453c0.239-0.136,0.47-0.205,0.695-0.205
		c0.146,0,0.273,0.029,0.38,0.088c0.107,0.059,0.2,0.142,0.278,0.249l1.053,1.316c-0.4,0.468-0.848,0.86-1.346,1.177
		c-0.497,0.317-1.017,0.57-1.558,0.761c-0.541,0.19-1.092,0.324-1.653,0.402c-0.561,0.078-1.104,0.117-1.631,0.117
		c-1.044,0-2.014-0.173-2.911-0.519c-0.897-0.346-1.677-0.858-2.34-1.536c-0.663-0.678-1.185-1.516-1.565-2.516
		c-0.38-0.999-0.57-2.157-0.57-3.474c0-1.024,0.166-1.986,0.497-2.888c0.331-0.902,0.807-1.687,1.426-2.355
		c0.619-0.668,1.375-1.197,2.267-1.587C170.085,195.488,171.092,195.293,172.213,195.293z M172.287,197.882
		c-1.053,0-1.877,0.298-2.472,0.892c-0.595,0.595-0.975,1.438-1.141,2.53h6.786c0-0.468-0.063-0.909-0.19-1.324
		c-0.127-0.415-0.322-0.777-0.585-1.09c-0.263-0.312-0.595-0.558-0.995-0.738C173.291,197.972,172.823,197.882,172.287,197.882z"/>
	<path style="fill:#D40E4A;" d="M181.01,210.533v-15.006h2.121c0.371,0,0.629,0.068,0.775,0.205c0.146,0.137,0.243,0.37,0.292,0.702
		l0.219,1.814c0.536-0.926,1.165-1.658,1.887-2.194c0.721-0.536,1.531-0.805,2.428-0.805c0.741,0,1.355,0.171,1.843,0.512
		l-0.468,2.706c-0.029,0.175-0.093,0.3-0.19,0.373c-0.098,0.073-0.229,0.11-0.395,0.11c-0.146,0-0.346-0.034-0.6-0.103
		c-0.254-0.068-0.59-0.102-1.009-0.102c-0.751,0-1.395,0.207-1.931,0.622c-0.536,0.415-0.99,1.021-1.36,1.821v9.346H181.01z"/>
	<path style="fill:#D40E4A;" d="M199.783,210.533h-3.276l-5.967-15.006h2.998c0.263,0,0.485,0.063,0.665,0.19
		c0.18,0.127,0.305,0.288,0.373,0.483l2.896,8.015c0.166,0.468,0.305,0.927,0.416,1.375c0.112,0.449,0.212,0.897,0.3,1.346
		c0.088-0.448,0.188-0.897,0.3-1.346c0.112-0.448,0.256-0.907,0.431-1.375l2.969-8.015c0.068-0.195,0.19-0.356,0.366-0.483
		c0.176-0.126,0.385-0.19,0.629-0.19h2.852L199.783,210.533z"/>
	<path style="fill:#D40E4A;" d="M211.334,191.154c0,0.312-0.064,0.605-0.19,0.878c-0.127,0.273-0.295,0.512-0.505,0.716
		c-0.21,0.205-0.456,0.368-0.739,0.49c-0.283,0.122-0.585,0.183-0.907,0.183c-0.312,0-0.607-0.061-0.885-0.183
		c-0.278-0.122-0.52-0.285-0.724-0.49s-0.368-0.444-0.49-0.716c-0.122-0.273-0.183-0.566-0.183-0.878
		c0-0.322,0.061-0.624,0.183-0.907c0.122-0.283,0.285-0.527,0.49-0.731c0.205-0.205,0.446-0.368,0.724-0.49
		c0.278-0.122,0.573-0.183,0.885-0.183c0.322,0,0.624,0.061,0.907,0.183c0.283,0.122,0.529,0.285,0.739,0.49
		c0.209,0.205,0.378,0.449,0.505,0.731C211.27,190.53,211.334,190.832,211.334,191.154z M210.793,195.527v15.006h-3.613v-15.006
		H210.793z"/>
	<path style="fill:#D40E4A;" d="M224.604,198.701c-0.107,0.137-0.212,0.244-0.314,0.322c-0.103,0.078-0.251,0.117-0.446,0.117
		c-0.185,0-0.366-0.056-0.541-0.168c-0.175-0.112-0.385-0.239-0.629-0.38c-0.244-0.141-0.534-0.268-0.87-0.381
		c-0.337-0.112-0.753-0.168-1.251-0.168c-0.634,0-1.19,0.115-1.667,0.344c-0.478,0.229-0.875,0.558-1.192,0.987
		c-0.317,0.43-0.553,0.949-0.709,1.558c-0.156,0.61-0.234,1.299-0.234,2.07c0,0.799,0.085,1.511,0.256,2.135
		c0.17,0.624,0.416,1.148,0.738,1.572c0.322,0.424,0.712,0.746,1.17,0.965c0.458,0.22,0.975,0.329,1.55,0.329
		s1.041-0.071,1.397-0.212c0.356-0.141,0.656-0.297,0.9-0.468c0.243-0.17,0.456-0.326,0.636-0.468
		c0.18-0.141,0.382-0.212,0.607-0.212c0.293,0,0.512,0.112,0.659,0.337l1.038,1.316c-0.4,0.468-0.833,0.86-1.302,1.177
		c-0.468,0.317-0.953,0.57-1.455,0.761c-0.502,0.19-1.022,0.324-1.558,0.402c-0.536,0.078-1.068,0.117-1.594,0.117
		c-0.927,0-1.799-0.173-2.618-0.519c-0.819-0.346-1.533-0.851-2.143-1.514c-0.61-0.663-1.092-1.475-1.448-2.435
		c-0.356-0.96-0.534-2.055-0.534-3.283c0-1.102,0.158-2.123,0.475-3.064c0.317-0.941,0.783-1.756,1.397-2.442
		c0.614-0.687,1.375-1.226,2.282-1.617c0.907-0.39,1.95-0.585,3.13-0.585c1.121,0,2.103,0.18,2.947,0.541
		c0.843,0.361,1.602,0.878,2.274,1.55L224.604,198.701z"/>
	<path style="fill:#D40E4A;" d="M233.306,195.293c0.946,0,1.816,0.151,2.611,0.453c0.795,0.302,1.479,0.744,2.055,1.324
		c0.575,0.58,1.024,1.292,1.346,2.136c0.322,0.843,0.483,1.806,0.483,2.888c0,0.273-0.012,0.5-0.036,0.68
		c-0.025,0.18-0.069,0.321-0.132,0.424c-0.063,0.102-0.149,0.175-0.256,0.219c-0.108,0.044-0.244,0.066-0.41,0.066h-9.273
		c0.107,1.541,0.521,2.672,1.243,3.393c0.722,0.722,1.677,1.082,2.866,1.082c0.585,0,1.09-0.068,1.514-0.205
		c0.424-0.137,0.795-0.288,1.112-0.454c0.317-0.166,0.594-0.317,0.833-0.453c0.239-0.136,0.47-0.205,0.695-0.205
		c0.146,0,0.273,0.029,0.38,0.088c0.107,0.059,0.2,0.142,0.278,0.249l1.053,1.316c-0.4,0.468-0.848,0.86-1.346,1.177
		c-0.498,0.317-1.017,0.57-1.558,0.761c-0.541,0.19-1.092,0.324-1.653,0.402c-0.561,0.078-1.104,0.117-1.631,0.117
		c-1.043,0-2.013-0.173-2.91-0.519c-0.897-0.346-1.677-0.858-2.34-1.536c-0.663-0.678-1.185-1.516-1.565-2.516
		c-0.381-0.999-0.57-2.157-0.57-3.474c0-1.024,0.166-1.986,0.497-2.888c0.331-0.902,0.807-1.687,1.426-2.355
		c0.619-0.668,1.374-1.197,2.267-1.587C231.178,195.488,232.185,195.293,233.306,195.293z M233.379,197.882
		c-1.053,0-1.877,0.298-2.472,0.892s-0.975,1.438-1.141,2.53h6.786c0-0.468-0.063-0.909-0.19-1.324
		c-0.127-0.415-0.322-0.777-0.585-1.09c-0.263-0.312-0.595-0.558-0.994-0.738C234.384,197.972,233.915,197.882,233.379,197.882z"/>
	<path style="fill:#D40E4A;" d="M251.294,198.452c-0.097,0.156-0.2,0.266-0.307,0.329c-0.107,0.063-0.244,0.095-0.41,0.095
		c-0.175,0-0.363-0.049-0.563-0.146c-0.2-0.097-0.431-0.207-0.695-0.329c-0.263-0.122-0.563-0.231-0.899-0.329
		c-0.337-0.097-0.734-0.146-1.192-0.146c-0.712,0-1.273,0.151-1.682,0.453c-0.41,0.302-0.614,0.697-0.614,1.185
		c0,0.322,0.105,0.592,0.314,0.812c0.21,0.22,0.488,0.412,0.834,0.578c0.346,0.166,0.739,0.314,1.177,0.446
		c0.439,0.132,0.888,0.276,1.346,0.431c0.458,0.156,0.907,0.334,1.346,0.534c0.438,0.2,0.831,0.454,1.177,0.761
		c0.346,0.307,0.624,0.675,0.834,1.104c0.209,0.429,0.314,0.946,0.314,1.55c0,0.722-0.132,1.387-0.395,1.997
		c-0.263,0.609-0.648,1.136-1.155,1.58c-0.507,0.444-1.134,0.79-1.88,1.038c-0.746,0.249-1.602,0.373-2.567,0.373
		c-0.517,0-1.021-0.047-1.513-0.139c-0.493-0.093-0.965-0.222-1.419-0.388c-0.454-0.166-0.873-0.361-1.258-0.585
		c-0.386-0.224-0.724-0.468-1.017-0.731l0.834-1.374c0.107-0.166,0.234-0.293,0.38-0.381c0.146-0.088,0.331-0.132,0.556-0.132
		c0.224,0,0.436,0.063,0.636,0.19c0.2,0.127,0.431,0.263,0.694,0.409c0.264,0.146,0.573,0.283,0.929,0.41
		c0.356,0.127,0.806,0.19,1.353,0.19c0.429,0,0.797-0.051,1.104-0.153c0.307-0.102,0.561-0.236,0.761-0.402
		c0.2-0.166,0.346-0.359,0.439-0.578c0.092-0.219,0.139-0.446,0.139-0.68c0-0.351-0.105-0.638-0.315-0.863
		c-0.209-0.224-0.487-0.419-0.833-0.585c-0.346-0.166-0.741-0.314-1.185-0.446c-0.444-0.132-0.897-0.276-1.36-0.431
		c-0.463-0.156-0.916-0.339-1.36-0.548c-0.444-0.21-0.839-0.476-1.185-0.798c-0.347-0.321-0.624-0.716-0.834-1.185
		c-0.21-0.468-0.314-1.033-0.314-1.696c0-0.615,0.122-1.2,0.366-1.755c0.243-0.555,0.602-1.041,1.075-1.455
		c0.473-0.414,1.062-0.746,1.769-0.994c0.707-0.249,1.524-0.373,2.45-0.373c1.034,0,1.975,0.171,2.823,0.512
		c0.848,0.342,1.555,0.79,2.121,1.346L251.294,198.452z"/>
	<path style="fill:#D40E4A;" d="M279.771,210.533h-3.042c-0.341,0-0.622-0.085-0.841-0.256c-0.219-0.17-0.378-0.382-0.475-0.636
		l-1.58-4.315h-8.761l-1.58,4.315c-0.078,0.224-0.231,0.429-0.46,0.614c-0.229,0.186-0.51,0.278-0.841,0.278h-3.057l8.308-21.149
		h4.022L279.771,210.533z M266.081,202.547h6.743l-2.574-7.035c-0.117-0.312-0.246-0.68-0.388-1.104
		c-0.142-0.424-0.281-0.885-0.417-1.382c-0.137,0.497-0.271,0.961-0.402,1.389c-0.132,0.43-0.261,0.805-0.388,1.126L266.081,202.547
		z"/>
	<path style="fill:#D40E4A;" d="M284.144,195.527v9.536c0,0.917,0.212,1.626,0.636,2.128c0.424,0.502,1.061,0.753,1.909,0.753
		c0.624,0,1.209-0.139,1.755-0.416c0.546-0.278,1.062-0.661,1.55-1.148v-10.852h3.613v15.006h-2.209
		c-0.468,0-0.775-0.219-0.921-0.658l-0.249-1.2c-0.313,0.312-0.634,0.597-0.965,0.856c-0.332,0.258-0.685,0.478-1.061,0.658
		c-0.375,0.18-0.78,0.322-1.214,0.424c-0.434,0.103-0.899,0.154-1.396,0.154c-0.819,0-1.543-0.139-2.172-0.417
		c-0.629-0.278-1.158-0.67-1.587-1.177c-0.429-0.507-0.753-1.109-0.972-1.806c-0.22-0.697-0.329-1.465-0.329-2.304v-9.536H284.144z"
		/>
	<path style="fill:#D40E4A;" d="M301.491,210.767c-1.297,0-2.297-0.368-2.998-1.104c-0.702-0.736-1.053-1.753-1.053-3.049v-8.381
		h-1.521c-0.195,0-0.363-0.063-0.505-0.19c-0.142-0.127-0.212-0.317-0.212-0.57v-1.434l2.413-0.395l0.761-4.095
		c0.039-0.195,0.129-0.346,0.271-0.453c0.141-0.107,0.319-0.161,0.534-0.161h1.872v4.724h3.949v2.574h-3.949v8.132
		c0,0.468,0.117,0.834,0.351,1.097c0.234,0.264,0.546,0.395,0.936,0.395c0.224,0,0.412-0.027,0.563-0.08
		c0.151-0.054,0.283-0.11,0.395-0.168c0.112-0.058,0.212-0.114,0.3-0.168c0.088-0.053,0.175-0.08,0.263-0.08
		c0.107,0,0.195,0.027,0.264,0.08c0.068,0.054,0.141,0.134,0.219,0.242l1.082,1.755c-0.527,0.439-1.131,0.77-1.814,0.994
		C302.929,210.655,302.222,210.767,301.491,210.767z"/>
	<path style="fill:#D40E4A;" d="M306.975,210.533v-21.734h3.612v8.352c0.585-0.556,1.229-1.004,1.931-1.346
		c0.702-0.341,1.526-0.512,2.472-0.512c0.819,0,1.545,0.139,2.179,0.417c0.634,0.278,1.163,0.668,1.587,1.17
		c0.424,0.502,0.746,1.102,0.965,1.799c0.219,0.697,0.329,1.465,0.329,2.304v9.551h-3.613v-9.551c0-0.916-0.212-1.626-0.636-2.128
		c-0.424-0.502-1.06-0.753-1.908-0.753c-0.624,0-1.209,0.141-1.755,0.424c-0.547,0.283-1.063,0.668-1.551,1.156v10.852H306.975z"/>
	<path style="fill:#D40E4A;" d="M329.4,195.293c1.121,0,2.138,0.18,3.05,0.541c0.911,0.361,1.689,0.873,2.333,1.536
		c0.644,0.663,1.141,1.472,1.492,2.428c0.351,0.956,0.527,2.023,0.527,3.203c0,1.19-0.175,2.262-0.527,3.218
		c-0.351,0.956-0.848,1.769-1.492,2.442c-0.644,0.673-1.422,1.19-2.333,1.55c-0.912,0.361-1.929,0.541-3.05,0.541
		c-1.121,0-2.14-0.18-3.057-0.541c-0.916-0.361-1.699-0.878-2.347-1.55c-0.649-0.673-1.151-1.487-1.506-2.442
		c-0.356-0.956-0.534-2.028-0.534-3.218c0-1.18,0.178-2.248,0.534-3.203c0.356-0.956,0.858-1.765,1.506-2.428
		c0.648-0.663,1.431-1.175,2.347-1.536C327.26,195.473,328.279,195.293,329.4,195.293z M329.4,207.974
		c1.248,0,2.172-0.419,2.772-1.258c0.6-0.839,0.9-2.067,0.9-3.686c0-1.618-0.3-2.852-0.9-3.7c-0.6-0.848-1.524-1.272-2.772-1.272
		c-1.268,0-2.204,0.427-2.808,1.28c-0.604,0.853-0.907,2.084-0.907,3.693c0,1.609,0.302,2.835,0.907,3.678
		C327.196,207.552,328.133,207.974,329.4,207.974z"/>
	<path style="fill:#D40E4A;" d="M338.83,210.533v-15.006h2.121c0.37,0,0.629,0.068,0.775,0.205c0.146,0.137,0.243,0.37,0.292,0.702
		l0.219,1.814c0.536-0.926,1.165-1.658,1.887-2.194c0.721-0.536,1.531-0.805,2.428-0.805c0.741,0,1.355,0.171,1.843,0.512
		l-0.468,2.706c-0.029,0.175-0.093,0.3-0.19,0.373c-0.098,0.073-0.229,0.11-0.395,0.11c-0.146,0-0.346-0.034-0.6-0.103
		c-0.254-0.068-0.59-0.102-1.009-0.102c-0.751,0-1.395,0.207-1.93,0.622c-0.536,0.415-0.99,1.021-1.36,1.821v9.346H338.83z"/>
	<path style="fill:#D40E4A;" d="M353.76,191.154c0,0.312-0.064,0.605-0.19,0.878c-0.127,0.273-0.295,0.512-0.505,0.716
		c-0.21,0.205-0.456,0.368-0.739,0.49c-0.283,0.122-0.585,0.183-0.907,0.183c-0.312,0-0.607-0.061-0.885-0.183
		c-0.278-0.122-0.52-0.285-0.724-0.49s-0.368-0.444-0.49-0.716c-0.122-0.273-0.183-0.566-0.183-0.878
		c0-0.322,0.061-0.624,0.183-0.907c0.122-0.283,0.285-0.527,0.49-0.731c0.205-0.205,0.446-0.368,0.724-0.49
		c0.278-0.122,0.573-0.183,0.885-0.183c0.322,0,0.624,0.061,0.907,0.183c0.283,0.122,0.529,0.285,0.739,0.49
		c0.209,0.205,0.378,0.449,0.505,0.731C353.696,190.53,353.76,190.832,353.76,191.154z M353.218,195.527v15.006h-3.613v-15.006
		H353.218z"/>
	<path style="fill:#D40E4A;" d="M361.063,210.767c-1.297,0-2.297-0.368-2.998-1.104c-0.702-0.736-1.053-1.753-1.053-3.049v-8.381
		h-1.521c-0.195,0-0.363-0.063-0.505-0.19c-0.142-0.127-0.212-0.317-0.212-0.57v-1.434l2.413-0.395l0.761-4.095
		c0.039-0.195,0.129-0.346,0.271-0.453c0.141-0.107,0.319-0.161,0.534-0.161h1.872v4.724h3.949v2.574h-3.949v8.132
		c0,0.468,0.117,0.834,0.351,1.097c0.234,0.264,0.546,0.395,0.936,0.395c0.224,0,0.412-0.027,0.563-0.08
		c0.151-0.054,0.283-0.11,0.395-0.168c0.112-0.058,0.212-0.114,0.3-0.168c0.088-0.053,0.175-0.08,0.263-0.08
		c0.107,0,0.195,0.027,0.264,0.08c0.068,0.054,0.141,0.134,0.219,0.242l1.082,1.755c-0.527,0.439-1.131,0.77-1.814,0.994
		C362.501,210.655,361.795,210.767,361.063,210.767z"/>
	<path style="fill:#D40E4A;" d="M372.518,214.658c-0.108,0.253-0.247,0.446-0.417,0.577c-0.171,0.132-0.431,0.198-0.783,0.198
		h-2.691l2.808-6.011l-6.07-13.895h3.159c0.292,0,0.517,0.068,0.673,0.205c0.156,0.137,0.273,0.292,0.351,0.468l3.203,7.781
		c0.107,0.254,0.2,0.517,0.278,0.79c0.078,0.273,0.146,0.546,0.205,0.819c0.078-0.283,0.163-0.555,0.256-0.819
		c0.092-0.263,0.193-0.531,0.3-0.805l3.013-7.766c0.078-0.195,0.207-0.356,0.388-0.483c0.181-0.126,0.382-0.19,0.607-0.19h2.896
		L372.518,214.658z"/>
</g>
</svg>